# xmcd CD database file
#
# Track frame offsets:
#	150
#	22447
#	40582
#	58397
#	89472
#	103082
#	124425
#	140032
#	154655
#
# Disc length: 2523 seconds
#
# Revision: 3
# Processed by: cddbd v1.4PL0 Copyright (c) Steve Scherf et al.
# Submitted via: CDex 1.40Release
#
DISCID=8709d909
DTITLE=Alabama - Just Us
DYEAR=1900
DGENRE=
TTITLE0=Tar Top
TTITLE1=I Can't Stop
TTITLE2=I Saw The Time
TTITLE3=You're My Explanation For Living
TTITLE4=Face To Face
TTITLE5=(I Wish It Could Always Be) '55
TTITLE6=Old Man
TTITLE7=If I Could Just See You Now
TTITLE8=Fallin' Again
EXTD=
EXTT0=
EXTT1=
EXTT2=
EXTT3=
EXTT4=
EXTT5=
EXTT6=
EXTT7=
EXTT8=
PLAYORDER=
